<svg width="36" height="36" viewBox="0 0 36 36" fill="none" xmlns="http://www.w3.org/2000/svg">
<path d="M7.5 22.674V9C7.5 8.021 7.7815 7.234 8.3445 6.639C8.9075 6.044 9.6695 5.588 10.6305 5.271C11.5915 4.954 12.709 4.747 13.983 4.65C15.257 4.553 16.596 4.503 18 4.5C19.458 4.5 20.822 4.5495 22.092 4.6485C23.362 4.7475 24.4735 4.9555 25.4265 5.2725C26.3795 5.5895 27.13 6.045 27.678 6.639C28.226 7.233 28.5 8.02 28.5 9V22.674C28.5 23.879 28.08 24.9015 27.24 25.7415C26.401 26.5805 25.379 27 24.174 27L26.424 29.25V30H25.1535L22.1535 27H13.8465L10.8465 30H9.5775V29.25L11.8275 27C10.6215 27 9.599 26.58 8.76 25.74C7.92 24.902 7.5 23.88 7.5 22.674ZM18 6C15.061 6 12.9215 6.195 11.5815 6.585C10.2415 6.974 9.433 7.5485 9.156 8.3085H26.8785C26.6185 7.5365 25.817 6.959 24.474 6.576C23.131 6.192 20.973 6 18 6ZM9 16.5H17.25V9.8085H9V16.5ZM24.174 18H9H27H24.174ZM18.75 16.5H27V9.8085H18.75V16.5ZM12.75 23.424C13.227 23.424 13.625 23.264 13.944 22.944C14.263 22.624 14.423 22.226 14.424 21.75C14.425 21.274 14.265 20.876 13.944 20.556C13.623 20.236 13.225 20.076 12.75 20.076C12.275 20.076 11.877 20.236 11.556 20.556C11.235 20.876 11.075 21.274 11.076 21.75C11.077 22.226 11.237 22.624 11.556 22.944C11.875 23.264 12.273 23.424 12.75 23.424ZM23.25 23.424C23.727 23.424 24.125 23.264 24.444 22.944C24.763 22.624 24.923 22.226 24.924 21.75C24.925 21.274 24.765 20.876 24.444 20.556C24.123 20.236 23.725 20.076 23.25 20.076C22.775 20.076 22.377 20.236 22.056 20.556C21.735 20.876 21.575 21.274 21.576 21.75C21.577 22.226 21.737 22.624 22.056 22.944C22.375 23.264 22.773 23.424 23.25 23.424ZM11.8275 25.5H24.1725C24.9575 25.5 25.625 25.225 26.175 24.675C26.725 24.125 27 23.4575 27 22.6725V18H9V22.674C9 23.458 9.275 24.125 9.825 24.675C10.375 25.225 11.0425 25.5 11.8275 25.5ZM18 8.3085H26.8785H9.156H18Z" fill="#99A1AF"/>
</svg>
