<svg width="48" height="48" viewBox="0 0 48 48" fill="none" xmlns="http://www.w3.org/2000/svg">
<circle cx="24" cy="24" r="24" fill="#FEA100" fill-opacity="0.2"/>
<path fill-rule="evenodd" clip-rule="evenodd" d="M15.1663 13.5541C16.6875 12.0416 19.1925 12.3104 20.4663 14.0129L22.0438 16.1179C23.0813 17.5029 22.9888 19.4379 21.7575 20.6616L21.46 20.9591C21.4263 21.084 21.4229 21.2151 21.45 21.3416C21.5288 21.8516 21.955 22.9316 23.74 24.7066C25.525 26.4816 26.6125 26.9066 27.13 26.9866C27.2604 27.0128 27.3951 27.009 27.5238 26.9754L28.0338 26.4679C29.1288 25.3804 30.8088 25.1766 32.1638 25.9129L34.5513 27.2129C36.5975 28.3229 37.1138 31.1029 35.4388 32.7691L33.6625 34.5341C33.1025 35.0904 32.35 35.5541 31.4325 35.6404C29.17 35.8516 23.8988 35.5816 18.3575 30.0729C13.1863 24.9304 12.1938 20.4454 12.0675 18.2354C12.005 17.1179 12.5325 16.1729 13.205 15.5054L15.1663 13.5541ZM18.9663 15.1366C18.3325 14.2904 17.1525 14.2229 16.4875 14.8841L14.525 16.8341C14.1125 17.2441 13.915 17.6966 13.94 18.1291C14.04 19.8854 14.84 23.9316 19.68 28.7441C24.7575 33.7916 29.4463 33.9429 31.2588 33.7729C31.6288 33.7391 31.9963 33.5466 32.34 33.2054L34.115 31.4391C34.8375 30.7216 34.6788 29.4141 33.6563 28.8591L31.2688 27.5604C30.6088 27.2029 29.8363 27.3204 29.3563 27.7979L28.7875 28.3641L28.125 27.6991C28.7875 28.3641 28.7863 28.3654 28.785 28.3654L28.7838 28.3679L28.78 28.3716L28.7713 28.3791L28.7525 28.3966C28.6998 28.4456 28.6429 28.4899 28.5825 28.5291C28.4825 28.5954 28.35 28.6691 28.1838 28.7304C27.8463 28.8566 27.3988 28.9241 26.8463 28.8391C25.7625 28.6729 24.3263 27.9341 22.4175 26.0366C20.51 24.1391 19.765 22.7116 19.5975 21.6291C19.5113 21.0766 19.58 20.6291 19.7075 20.2916C19.7777 20.1017 19.8782 19.9244 20.005 19.7666L20.045 19.7229L20.0625 19.7041L20.07 19.6966L20.0738 19.6929L20.0763 19.6904L20.4363 19.3329C20.9713 18.7991 21.0463 17.9154 20.5425 17.2416L18.9663 15.1366Z" fill="#FEA100"/>
</svg>
