<svg width="20" height="12" viewBox="0 0 20 12" fill="none" xmlns="http://www.w3.org/2000/svg">
<path d="M0.43918 11.0452C0.720471 11.3264 1.10193 11.4844 1.49968 11.4844C1.89743 11.4844 2.27889 11.3264 2.56018 11.0452L9.98518 3.6202L17.4102 11.0452C17.6931 11.3184 18.072 11.4696 18.4653 11.4662C18.8586 11.4628 19.2348 11.305 19.5129 11.0269C19.791 10.7488 19.9488 10.3726 19.9522 9.9793C19.9556 9.586 19.8044 9.2071 19.5312 8.9242L11.0457 0.438696C10.7644 0.15749 10.3829 -0.000484467 9.98518 -0.000484467C9.58743 -0.000484467 9.20597 0.15749 8.92468 0.438696L0.43918 8.9242C0.157973 9.20549 0 9.58695 0 9.9847C0 10.3824 0.157973 10.7639 0.43918 11.0452Z" fill="white"/>
</svg>
