<svg width="36" height="36" viewBox="0 0 36 36" fill="none" xmlns="http://www.w3.org/2000/svg">
<path d="M10.875 6C9.78098 6 8.73177 6.4346 7.95818 7.20818C7.1846 7.98177 6.75 9.03098 6.75 10.125V12.1305C5.68212 12.3838 4.73095 12.99 4.0504 13.851C3.36985 14.712 2.99976 15.7775 3 16.875V21.375C2.99986 22.4042 3.38446 23.3963 4.07829 24.1564C4.77212 24.9166 5.72506 25.3899 6.75 25.4835V27.375C6.75 27.6734 6.86853 27.9595 7.0795 28.1705C7.29048 28.3815 7.57663 28.5 7.875 28.5C8.17337 28.5 8.45952 28.3815 8.6705 28.1705C8.88147 27.9595 9 27.6734 9 27.375V25.5H27V27.375C27 27.6734 27.1185 27.9595 27.3295 28.1705C27.5405 28.3815 27.8266 28.5 28.125 28.5C28.4234 28.5 28.7095 28.3815 28.9205 28.1705C29.1315 27.9595 29.25 27.6734 29.25 27.375V25.4835C30.2749 25.3899 31.2279 24.9166 31.9217 24.1564C32.6155 23.3963 33.0001 22.4042 33 21.375V16.875C33.0002 15.7775 32.6301 14.712 31.9496 13.851C31.2691 12.99 30.3179 12.3838 29.25 12.1305V10.125C29.25 9.03098 28.8154 7.98177 28.0418 7.20818C27.2682 6.4346 26.219 6 25.125 6H10.875ZM28.875 23.25H7.125C6.09 23.25 5.25 22.41 5.25 21.375V16.875C5.25 16.1788 5.52656 15.5111 6.01884 15.0188C6.51113 14.5266 7.17881 14.25 7.875 14.25C8.57119 14.25 9.23887 14.5266 9.73116 15.0188C10.2234 15.5111 10.5 16.1788 10.5 16.875V17.625C10.5 18.246 11.004 18.75 11.625 18.75H24.375C24.6734 18.75 24.9595 18.6315 25.1705 18.4205C25.3815 18.2095 25.5 17.9234 25.5 17.625V16.875C25.5 16.1788 25.7766 15.5111 26.2688 15.0188C26.7611 14.5266 27.4288 14.25 28.125 14.25C28.8212 14.25 29.4889 14.5266 29.9812 15.0188C30.4734 15.5111 30.75 16.1788 30.75 16.875V21.375C30.75 22.41 29.91 23.25 28.875 23.25ZM27 12.1305C25.9947 12.3691 25.0913 12.9208 24.42 13.7062C23.7487 14.4915 23.3442 15.4699 23.265 16.5H12.735C12.6558 15.4699 12.2513 14.4915 11.58 13.7062C10.9087 12.9208 10.0053 12.3691 9 12.1305V10.125C9 9.09 9.84 8.25 10.875 8.25H25.125C26.16 8.25 27 9.09 27 10.125V12.1305Z" fill="#99A1AF"/>
</svg>
