<svg width="36" height="36" viewBox="0 0 36 36" fill="none" xmlns="http://www.w3.org/2000/svg">
<path d="M9 30C8.575 30 8.219 29.856 7.932 29.568C7.645 29.28 7.501 28.924 7.5 28.5C7.499 28.076 7.643 27.72 7.932 27.432C8.221 27.144 8.577 27 9 27H27C27.425 27 27.7815 27.144 28.0695 27.432C28.3575 27.72 28.501 28.076 28.5 28.5C28.499 28.924 28.355 29.2805 28.068 29.5695C27.781 29.8585 27.425 30.002 27 30H9ZM10.05 24.75C9.325 24.75 8.6815 24.5125 8.1195 24.0375C7.5575 23.5625 7.2135 22.9625 7.0875 22.2375L5.5875 12.7125C5.5375 12.7125 5.4815 12.719 5.4195 12.732C5.3575 12.745 5.301 12.751 5.25 12.75C4.625 12.75 4.094 12.5315 3.657 12.0945C3.22 11.6575 3.001 11.126 3 10.5C2.999 9.874 3.218 9.343 3.657 8.907C4.096 8.471 4.627 8.252 5.25 8.25C5.873 8.248 6.4045 8.467 6.8445 8.907C7.2845 9.347 7.503 9.878 7.5 10.5C7.5 10.675 7.481 10.8375 7.443 10.9875C7.405 11.1375 7.3615 11.275 7.3125 11.4L12 13.5L16.6875 7.0875C16.4125 6.8875 16.1875 6.625 16.0125 6.3C15.8375 5.975 15.75 5.625 15.75 5.25C15.75 4.625 15.969 4.0935 16.407 3.6555C16.845 3.2175 17.376 2.999 18 3C18.624 3.001 19.1555 3.22 19.5945 3.657C20.0335 4.094 20.252 4.625 20.25 5.25C20.25 5.625 20.1625 5.975 19.9875 6.3C19.8125 6.625 19.5875 6.8875 19.3125 7.0875L24 13.5L28.6875 11.4C28.6375 11.275 28.5935 11.1375 28.5555 10.9875C28.5175 10.8375 28.499 10.675 28.5 10.5C28.5 9.875 28.719 9.3435 29.157 8.9055C29.595 8.4675 30.126 8.249 30.75 8.25C31.374 8.251 31.9055 8.47 32.3445 8.907C32.7835 9.344 33.002 9.875 33 10.5C32.998 11.125 32.7795 11.6565 32.3445 12.0945C31.9095 12.5325 31.378 12.751 30.75 12.75C30.7 12.75 30.644 12.744 30.582 12.732C30.52 12.72 30.4635 12.7135 30.4125 12.7125L28.9125 22.2375C28.7875 22.9625 28.444 23.5625 27.882 24.0375C27.32 24.5125 26.676 24.75 25.95 24.75H10.05ZM10.05 21.75H25.95L26.925 15.4875L25.2 16.2375C24.55 16.5125 23.8875 16.5625 23.2125 16.3875C22.5375 16.2125 21.9875 15.8375 21.5625 15.2625L18 10.35L14.4375 15.2625C14.0125 15.8375 13.4625 16.2125 12.7875 16.3875C12.1125 16.5625 11.45 16.5125 10.8 16.2375L9.075 15.4875L10.05 21.75Z" fill="#FFDB43"/>
</svg>
