<svg width="80" height="80" viewBox="0 0 80 80" fill="none" xmlns="http://www.w3.org/2000/svg">
<circle cx="40" cy="40" r="40" fill="#27272A"/>
<path fill-rule="evenodd" clip-rule="evenodd" d="M59.7855 35.5066C60.9522 39.0295 60.9188 42.8337 60.8376 46.1066L60.8334 46.3024C60.8196 46.855 60.5869 47.3794 60.1864 47.7603C59.7859 48.1413 59.2505 48.3475 58.698 48.3337C58.1455 48.3199 57.621 48.0871 57.2401 47.6867C56.8592 47.2862 56.6529 46.7508 56.6667 46.1983L56.673 46.0045C56.7542 42.6774 56.7376 39.5629 55.8292 36.817C55.1416 34.7473 54.0544 32.8326 52.6292 31.1816C49.7348 27.8454 45.6379 25.7897 41.2331 25.4634C36.8283 25.1371 32.4733 26.5666 29.1188 29.4399C27.462 30.8581 26.1019 32.5898 25.1169 34.5356C24.1319 36.4813 23.5413 38.6026 23.3792 40.7774C23.2709 42.2191 23.2959 43.0691 23.3334 44.2733C23.3563 45.0483 23.3855 45.9712 23.3855 47.292C23.3855 47.8446 23.166 48.3745 22.7753 48.7652C22.3846 49.1559 21.8547 49.3754 21.3022 49.3754C20.7496 49.3754 20.2197 49.1559 19.829 48.7652C19.4383 48.3745 19.2188 47.8446 19.2188 47.292C19.2188 46.2691 19.1959 45.4295 19.173 44.6566C19.1355 43.2649 19.1022 42.0962 19.2251 40.4691C19.428 37.7479 20.1667 35.0936 21.3987 32.6589C22.6308 30.2241 24.3319 28.0568 26.4042 26.2816C30.592 22.6824 36.0374 20.893 41.5438 21.3066C47.0477 21.7162 52.166 24.2866 55.7813 28.4566C57.5649 30.5217 58.9253 32.9171 59.7855 35.5066Z" fill="#94A3B8"/>
<path fill-rule="evenodd" clip-rule="evenodd" d="M33.8646 47.7063L34.4354 54.2271C34.5038 55.0059 34.418 55.7905 34.1831 56.5362C33.9482 57.2818 33.5687 57.9739 33.0663 58.5729C32.5639 59.1718 31.9484 59.6659 31.2549 60.027C30.5615 60.388 29.8038 60.609 29.025 60.6771C26.7447 60.8764 24.4786 60.1618 22.7252 58.6905C20.9717 57.2191 19.8746 55.1115 19.675 52.8313L19.1541 46.9021C19.0826 46.0843 19.1729 45.2605 19.4198 44.4776C19.6668 43.6947 20.0655 42.9682 20.5933 42.3394C21.121 41.7107 21.7675 41.192 22.4957 40.8132C23.2239 40.4343 24.0197 40.2026 24.8375 40.1313C27.039 39.9389 29.2268 40.6288 30.9197 42.0494C32.6126 43.47 33.6718 45.5048 33.8646 47.7063ZM25.2 44.2813C24.6497 44.3295 24.1411 44.5942 23.7859 45.0173C23.4308 45.4404 23.2583 45.9872 23.3062 46.5375L23.827 52.4688C23.9303 53.6477 24.4974 54.7374 25.4037 55.4984C26.31 56.2593 27.4814 56.6294 28.6604 56.5271C28.8942 56.5069 29.1218 56.4408 29.3301 56.3326C29.5384 56.2244 29.7233 56.0761 29.8742 55.8964C30.0251 55.7166 30.1391 55.5088 30.2097 55.285C30.2803 55.0611 30.306 54.8255 30.2854 54.5917L29.7145 48.0709C29.6671 47.5255 29.5127 46.9949 29.2601 46.5093C29.0075 46.0237 28.6617 45.5926 28.2424 45.2407C27.8232 44.8888 27.3387 44.6229 26.8167 44.4583C26.2946 44.2937 25.7453 44.2335 25.2 44.2813ZM60.3229 53.1271L60.8937 46.6063C60.9621 45.8275 60.8764 45.0429 60.6415 44.2972C60.4066 43.5515 60.027 42.8595 59.5246 42.2605C59.0222 41.6615 58.4067 41.1674 57.7133 40.8064C57.0199 40.4453 56.2621 40.2244 55.4833 40.1563C53.203 39.9569 50.9369 40.6715 49.1835 42.1429C47.4301 43.6143 46.3329 45.7218 46.1333 48.0021L45.6125 53.9313C45.541 54.749 45.6312 55.5729 45.8782 56.3558C46.1251 57.1386 46.5238 57.8652 47.0516 58.494C47.5794 59.1227 48.2258 59.6413 48.9541 60.0202C49.6823 60.3991 50.478 60.6308 51.2958 60.7021C53.4973 60.8945 55.6851 60.2045 57.378 58.784C59.0709 57.3634 60.1302 55.3286 60.3229 53.1271ZM51.6583 56.5521C51.108 56.5039 50.5994 56.2392 50.2443 55.8161C49.8892 55.393 49.7166 54.8462 49.7646 54.2959L50.2854 48.3646C50.3886 47.1857 50.9557 46.096 51.862 45.335C52.7684 44.574 53.9397 44.204 55.1187 44.3063C55.5904 44.3486 56.0261 44.576 56.3306 44.9387C56.6351 45.3014 56.7836 45.7698 56.7437 46.2417L56.1729 52.7625C56.1254 53.3078 55.971 53.8385 55.7184 54.3241C55.4658 54.8097 55.12 55.2408 54.7008 55.5927C54.2815 55.9446 53.797 56.2105 53.275 56.3751C52.7529 56.5397 52.2036 56.5999 51.6583 56.5521Z" fill="#94A3B8"/>
</svg>
