<svg width="36" height="36" viewBox="0 0 36 36" fill="none" xmlns="http://www.w3.org/2000/svg">
<path d="M18.0001 25.5C18.3979 25.5 18.7794 25.658 19.0607 25.9394C19.342 26.2207 19.5001 26.6022 19.5001 27C19.5001 27.3978 19.342 27.7794 19.0607 28.0607C18.7794 28.342 18.3979 28.5 18.0001 28.5C17.6023 28.5 17.2207 28.342 16.9394 28.0607C16.6581 27.7794 16.5001 27.3978 16.5001 27C16.5001 26.6022 16.6581 26.2207 16.9394 25.9394C17.2207 25.658 17.6023 25.5 18.0001 25.5ZM18.0001 19.5C20.0701 19.5 21.9481 20.34 23.3041 21.696C23.5855 21.9775 23.7437 22.3592 23.7437 22.7573C23.7437 23.1553 23.5855 23.5371 23.3041 23.8185C23.0226 24.1 22.6409 24.2581 22.2428 24.2581C21.8448 24.2581 21.463 24.1 21.1816 23.8185C20.3379 22.9745 19.1935 22.5003 18.0001 22.5C16.7566 22.5 15.6346 23.0025 14.8186 23.8185C14.5371 24.1 14.1554 24.2581 13.7573 24.2581C13.3593 24.2581 12.9775 24.1 12.6961 23.8185C12.4146 23.5371 12.2565 23.1553 12.2565 22.7573C12.2565 22.3592 12.4146 21.9775 12.6961 21.696C13.3927 20.9996 14.2196 20.4473 15.1297 20.0705C16.0397 19.6937 17.0151 19.4998 18.0001 19.5ZM18.0001 13.5C19.7732 13.4984 21.5292 13.8468 23.1673 14.5253C24.8054 15.2038 26.2935 16.1991 27.5461 17.454C27.8193 17.7369 27.9705 18.1158 27.9671 18.5091C27.9637 18.9024 27.8059 19.2786 27.5278 19.5567C27.2497 19.8349 26.8735 19.9926 26.4802 19.996C26.0869 19.9994 25.708 19.8483 25.4251 19.575C24.451 18.5987 23.2936 17.8244 22.0194 17.2967C20.7452 16.769 19.3792 16.4983 18.0001 16.5C16.6209 16.4983 15.255 16.769 13.9808 17.2967C12.7066 17.8244 11.5492 18.5987 10.5751 19.575C10.2922 19.8483 9.91328 19.9994 9.51998 19.996C9.12669 19.9926 8.75047 19.8349 8.47236 19.5567C8.19424 19.2786 8.03649 18.9024 8.03307 18.5091C8.02966 18.1158 8.18085 17.7369 8.45408 17.454C9.7067 16.1991 11.1948 15.2038 12.8329 14.5253C14.471 13.8468 16.227 13.4984 18.0001 13.5ZM18.0001 7.50001C23.3851 7.50001 28.2601 9.68401 31.7881 13.212C32.0613 13.4949 32.2125 13.8738 32.2091 14.2671C32.2057 14.6604 32.0479 15.0366 31.7698 15.3147C31.4917 15.5929 31.1155 15.7506 30.7222 15.754C30.3289 15.7574 29.95 15.6063 29.6671 15.333C28.1369 13.7982 26.3184 12.581 24.3161 11.7516C22.3139 10.9222 20.1674 10.4968 18.0001 10.5C15.8328 10.4968 13.6863 10.9222 11.684 11.7516C9.68174 12.581 7.86322 13.7982 6.33308 15.333C6.05018 15.6063 5.67128 15.7574 5.27798 15.754C4.88469 15.7506 4.50847 15.5929 4.23036 15.3147C3.95224 15.0366 3.79449 14.6604 3.79107 14.2671C3.78765 13.8738 3.93885 13.4949 4.21208 13.212C6.02074 11.3986 8.16991 9.96041 10.5361 8.98016C12.9023 7.99991 15.4389 7.49689 18.0001 7.50001Z" fill="#99A1AF"/>
</svg>
