<svg width="56" height="56" viewBox="0 0 56 56" fill="none" xmlns="http://www.w3.org/2000/svg">
<circle cx="28" cy="28" r="28" fill="#27272A"/>
<path d="M42.5832 27.9993C42.5832 19.945 36.0542 13.416 27.9998 13.416C19.9455 13.416 13.4165 19.945 13.4165 27.9993C13.4165 36.0537 19.9455 42.5827 27.9998 42.5827C36.0542 42.5827 42.5832 36.0537 42.5832 27.9993Z" stroke="#99A1AF" stroke-width="1.5"/>
<path d="M39.6665 18.8104C38.303 18.9081 36.5573 19.4375 35.3469 21.0037C33.1594 23.8329 30.9734 24.0706 29.515 23.1271C27.3275 21.7125 29.1665 19.4185 26.5998 18.1731C24.9271 17.3608 24.6938 15.1514 25.6257 13.416M13.4165 26.541C14.5292 27.5064 16.0853 28.3902 17.9213 28.3902C21.713 28.3902 22.4713 29.115 22.4713 32.0127C22.4713 34.9104 22.4713 34.9104 23.2296 37.0833C23.7225 38.4979 23.8946 39.9096 22.9117 41.1243M42.5832 30.1168C41.2896 29.3731 39.6665 29.0654 38.023 30.2452C34.8803 32.5056 32.7117 30.6331 31.7361 32.5041C30.2996 35.2575 35.4315 36.1223 30.9165 42.5827" stroke="#99A1AF" stroke-width="1.5" stroke-linejoin="round"/>
</svg>
