<svg width="36" height="36" viewBox="0 0 36 36" fill="none" xmlns="http://www.w3.org/2000/svg">
<path d="M33 18C33 9.7155 26.2845 3 18 3C9.7155 3 3 9.7155 3 18C3 26.2845 9.7155 33 18 33C26.2845 33 33 26.2845 33 18Z" stroke="#99A1AF" stroke-width="1.5"/>
<path d="M30 8.5485C28.5975 8.649 26.802 9.1935 25.557 10.8045C23.307 13.7145 21.0585 13.959 19.5585 12.9885C17.3085 11.5335 19.2 9.174 16.56 7.893C14.8395 7.0575 14.5995 4.785 15.558 3M3 16.5C4.1445 17.493 5.745 18.402 7.6335 18.402C11.5335 18.402 12.3135 19.1475 12.3135 22.128C12.3135 25.1085 12.3135 25.1085 13.0935 27.3435C13.6005 28.7985 13.7775 30.2505 12.7665 31.5M33 20.178C31.6695 19.413 30 19.0965 28.3095 20.31C25.077 22.635 22.8465 20.709 21.843 22.6335C20.3655 25.4655 25.644 26.355 21 33" stroke="#99A1AF" stroke-width="1.5" stroke-linejoin="round"/>
</svg>
