<svg width="36" height="36" viewBox="0 0 36 36" fill="none" xmlns="http://www.w3.org/2000/svg">
<path d="M30.8405 15.2835L19.5905 4.03349C19.1686 3.61185 18.5965 3.375 18 3.375C17.4035 3.375 16.8315 3.61185 16.4095 4.03349L5.15955 15.2835C4.9496 15.4919 4.78317 15.7399 4.66995 16.0132C4.55673 16.2865 4.49896 16.5796 4.50001 16.8754V30.3754C4.50001 30.6737 4.61854 30.9599 4.82952 31.1709C5.0405 31.3818 5.32665 31.5004 5.62501 31.5004H14.625C14.9234 31.5004 15.2095 31.3818 15.4205 31.1709C15.6315 30.9599 15.75 30.6737 15.75 30.3754V22.5004H20.25V30.3754C20.25 30.6737 20.3685 30.9599 20.5795 31.1709C20.7905 31.3818 21.0766 31.5004 21.375 31.5004H30.375C30.6734 31.5004 30.9595 31.3818 31.1705 31.1709C31.3815 30.9599 31.5 30.6737 31.5 30.3754V16.8754C31.5011 16.5796 31.4433 16.2865 31.3301 16.0132C31.2169 15.7399 31.0504 15.4919 30.8405 15.2835ZM29.25 29.2504H22.5V21.3754C22.5 21.077 22.3815 20.7908 22.1705 20.5799C21.9595 20.3689 21.6734 20.2504 21.375 20.2504H14.625C14.3266 20.2504 14.0405 20.3689 13.8295 20.5799C13.6185 20.7908 13.5 21.077 13.5 21.3754V29.2504H6.75001V16.8754L18 5.62536L29.25 16.8754V29.2504Z" fill="#99A1AF"/>
</svg>
