<svg width="140" height="140" viewBox="0 0 140 140" fill="none" xmlns="http://www.w3.org/2000/svg">
<circle cx="70" cy="70" r="68" stroke="#334155" stroke-width="4"/>
<mask id="path-2-inside-1_497_624" fill="white">
<path d="M140 70C140 80.2129 137.765 90.3022 133.452 99.5598C129.14 108.817 122.853 117.019 115.035 123.59C107.216 130.16 98.0543 134.94 88.1923 137.595C78.3303 140.249 68.007 140.713 57.9466 138.954C47.8862 137.196 38.3325 133.257 29.9557 127.415C21.579 121.572 14.5821 113.968 9.45601 105.134C4.32993 96.3011 1.19883 86.4531 0.282393 76.2813C-0.634049 66.1096 0.686366 55.8605 4.151 46.2532L7.91331 47.61C4.64663 56.6684 3.40166 66.3319 4.26574 75.9225C5.12982 85.513 8.08202 94.7983 12.9152 103.127C17.7484 111.456 24.3455 118.626 32.2437 124.134C40.1418 129.643 49.1497 133.357 58.6353 135.015C68.1208 136.673 77.8544 136.235 87.1529 133.733C96.4514 131.23 105.09 126.723 112.462 120.528C119.834 114.333 125.761 106.6 129.827 97.8709C133.893 89.1422 136.001 79.6294 136.001 70H140Z"/>
</mask>
<path d="M140 70C140 80.2129 137.765 90.3022 133.452 99.5598C129.14 108.817 122.853 117.019 115.035 123.59C107.216 130.16 98.0543 134.94 88.1923 137.595C78.3303 140.249 68.007 140.713 57.9466 138.954C47.8862 137.196 38.3325 133.257 29.9557 127.415C21.579 121.572 14.5821 113.968 9.45601 105.134C4.32993 96.3011 1.19883 86.4531 0.282393 76.2813C-0.634049 66.1096 0.686366 55.8605 4.151 46.2532L7.91331 47.61C4.64663 56.6684 3.40166 66.3319 4.26574 75.9225C5.12982 85.513 8.08202 94.7983 12.9152 103.127C17.7484 111.456 24.3455 118.626 32.2437 124.134C40.1418 129.643 49.1497 133.357 58.6353 135.015C68.1208 136.673 77.8544 136.235 87.1529 133.733C96.4514 131.23 105.09 126.723 112.462 120.528C119.834 114.333 125.761 106.6 129.827 97.8709C133.893 89.1422 136.001 79.6294 136.001 70H140Z" stroke="#FEA100" stroke-width="8" mask="url(#path-2-inside-1_497_624)"/>
<path fill-rule="evenodd" clip-rule="evenodd" d="M77.3333 47C77.9522 47 78.5457 47.2458 78.9833 47.6834C79.4208 48.121 79.6667 48.7145 79.6667 49.3333V51.6667H82C83.8565 51.6667 85.637 52.4042 86.9498 53.7169C88.2625 55.0297 89 56.8102 89 58.6667V61H91.3333C91.9522 61 92.5457 61.2458 92.9833 61.6834C93.4208 62.121 93.6667 62.7145 93.6667 63.3333C93.6667 63.9522 93.4208 64.5457 92.9833 64.9832C92.5457 65.4208 91.9522 65.6667 91.3333 65.6667H89V75H91.3333C91.9522 75 92.5457 75.2458 92.9833 75.6834C93.4208 76.121 93.6667 76.7145 93.6667 77.3333C93.6667 77.9522 93.4208 78.5457 92.9833 78.9833C92.5457 79.4208 91.9522 79.6667 91.3333 79.6667H89V82C89 83.8565 88.2625 85.637 86.9498 86.9498C85.637 88.2625 83.8565 89 82 89H79.6667V91.3333C79.6667 91.9522 79.4208 92.5457 78.9833 92.9833C78.5457 93.4208 77.9522 93.6667 77.3333 93.6667C76.7145 93.6667 76.121 93.4208 75.6834 92.9833C75.2458 92.5457 75 91.9522 75 91.3333V89H65.6667V91.3333C65.6667 91.9522 65.4208 92.5457 64.9832 92.9833C64.5457 93.4208 63.9522 93.6667 63.3333 93.6667C62.7145 93.6667 62.121 93.4208 61.6834 92.9833C61.2458 92.5457 61 91.9522 61 91.3333V89H58.6667C56.8102 89 55.0297 88.2625 53.7169 86.9498C52.4042 85.637 51.6667 83.8565 51.6667 82V79.6667H49.3333C48.7145 79.6667 48.121 79.4208 47.6834 78.9833C47.2458 78.5457 47 77.9522 47 77.3333C47 76.7145 47.2458 76.121 47.6834 75.6834C48.121 75.2458 48.7145 75 49.3333 75H51.6667V65.6667H49.3333C48.7145 65.6667 48.121 65.4208 47.6834 64.9832C47.2458 64.5457 47 63.9522 47 63.3333C47 62.7145 47.2458 62.121 47.6834 61.6834C48.121 61.2458 48.7145 61 49.3333 61H51.6667V58.6667C51.6667 56.8102 52.4042 55.0297 53.7169 53.7169C55.0297 52.4042 56.8102 51.6667 58.6667 51.6667H61V49.3333C61 48.7145 61.2458 48.121 61.6834 47.6834C62.121 47.2458 62.7145 47 63.3333 47C63.9522 47 64.5457 47.2458 64.9832 47.6834C65.4208 48.121 65.6667 48.7145 65.6667 49.3333V51.6667H75V49.3333C75 48.7145 75.2458 48.121 75.6834 47.6834C76.121 47.2458 76.7145 47 77.3333 47ZM82 56.3333H58.6667C58.0478 56.3333 57.4543 56.5792 57.0168 57.0168C56.5792 57.4543 56.3333 58.0478 56.3333 58.6667V82C56.3333 82.6188 56.5792 83.2123 57.0168 83.6499C57.4543 84.0875 58.0478 84.3333 58.6667 84.3333H82C82.6188 84.3333 83.2123 84.0875 83.6499 83.6499C84.0875 83.2123 84.3333 82.6188 84.3333 82V58.6667C84.3333 58.0478 84.0875 57.4543 83.6499 57.0168C83.2123 56.5792 82.6188 56.3333 82 56.3333ZM75 61C76.1773 60.9996 77.3113 61.4443 78.1746 62.2448C79.0379 63.0454 79.5667 64.1426 79.655 65.3167L79.6667 65.6667V75C79.667 76.1773 79.2224 77.3113 78.4218 78.1746C77.6213 79.0379 76.524 79.5667 75.35 79.655L75 79.6667H65.6667C64.4893 79.667 63.3553 79.2224 62.4921 78.4218C61.6288 77.6213 61.1 76.524 61.0117 75.35L61 75V65.6667C60.9996 64.4893 61.4443 63.3553 62.2448 62.4921C63.0454 61.6288 64.1426 61.1 65.3167 61.0117L65.6667 61H75ZM75 65.6667H65.6667V75H75V65.6667Z" fill="#FFDB43"/>
</svg>
