<svg width="20" height="20" viewBox="0 0 20 20" fill="none" xmlns="http://www.w3.org/2000/svg">
<path d="M16.6667 8.33268C16.6667 12.4935 12.0509 16.8268 10.5009 18.1652C10.3565 18.2738 10.1807 18.3325 10 18.3325C9.81938 18.3325 9.6436 18.2738 9.49921 18.1652C7.94921 16.8268 3.33337 12.4935 3.33337 8.33268C3.33337 6.56457 4.03575 4.86888 5.286 3.61864C6.53624 2.36839 8.23193 1.66602 10 1.66602C11.7682 1.66602 13.4638 2.36839 14.7141 3.61864C15.9643 4.86888 16.6667 6.56457 16.6667 8.33268Z" stroke="#FFDB43" stroke-width="1.66667" stroke-linecap="round" stroke-linejoin="round"/>
<path d="M10 10.834C11.3807 10.834 12.5 9.7147 12.5 8.33398C12.5 6.95327 11.3807 5.83398 10 5.83398C8.61929 5.83398 7.5 6.95327 7.5 8.33398C7.5 9.7147 8.61929 10.834 10 10.834Z" stroke="#FFDB43" stroke-width="1.66667" stroke-linecap="round" stroke-linejoin="round"/>
</svg>
