<svg width="20" height="20" viewBox="0 0 20 20" fill="none" xmlns="http://www.w3.org/2000/svg">
<path d="M17.4805 16.7679C18.1185 17.0804 18.6458 17.5198 19.0625 18.0862C19.4792 18.6526 19.7428 19.2907 19.8535 20.0003H18.7793C18.7077 19.6292 18.5742 19.2842 18.3789 18.9651C18.1836 18.6461 17.946 18.3727 17.666 18.1448C17.3861 17.917 17.0703 17.7347 16.7188 17.598C16.3672 17.4612 16.0026 17.3961 15.625 17.4026C15.2409 17.4026 14.8763 17.4678 14.5312 17.598C14.1862 17.7282 13.8704 17.9072 13.584 18.1351C13.2975 18.3629 13.0599 18.6396 12.8711 18.9651C12.6823 19.2907 12.5488 19.6357 12.4707 20.0003H11.3965C11.5007 19.2972 11.7611 18.6624 12.1777 18.096C12.5944 17.5296 13.125 17.0869 13.7695 16.7679C13.3984 16.4749 13.112 16.1201 12.9102 15.7034C12.7083 15.2868 12.6042 14.8441 12.5977 14.3753C12.5977 14.0823 12.6367 13.7991 12.7148 13.5257C12.793 13.2523 12.9102 12.9951 13.0664 12.7542C13.2227 12.5133 13.4082 12.2985 13.623 12.1097C13.8379 11.9209 14.0788 11.7614 14.3457 11.6312C14.1699 11.3773 13.9681 11.1526 13.7402 10.9573C13.5124 10.762 13.265 10.5895 12.998 10.4398C12.7311 10.29 12.4512 10.1826 12.1582 10.1175C11.8652 10.0524 11.5625 10.0133 11.25 10.0003C10.7292 10.0003 10.2311 10.1012 9.75586 10.303C9.2806 10.5049 8.86719 10.8011 8.51562 11.1917C8.67188 11.6149 8.75 12.0511 8.75 12.5003C8.75 13.0993 8.61654 13.6624 8.34961 14.1898C8.08268 14.7171 7.70833 15.1598 7.22656 15.5179C7.64974 15.7327 8.0306 15.9964 8.36914 16.3089C8.70768 16.6214 9.00065 16.973 9.24805 17.3636C9.49544 17.7542 9.68099 18.1709 9.80469 18.6136C9.92839 19.0563 9.99349 19.5185 10 20.0003H8.75C8.75 19.486 8.65234 19.001 8.45703 18.5452C8.26172 18.0895 7.99479 17.6924 7.65625 17.3538C7.31771 17.0153 6.91732 16.7451 6.45508 16.5433C5.99284 16.3415 5.50781 16.2438 5 16.2503C4.47917 16.2503 3.99414 16.348 3.54492 16.5433C3.0957 16.7386 2.69857 17.0055 2.35352 17.3441C2.00846 17.6826 1.73828 18.083 1.54297 18.5452C1.34766 19.0075 1.25 19.4925 1.25 20.0003H0C0 19.525 0.0651042 19.0661 0.195312 18.6234C0.325521 18.1806 0.511068 17.764 0.751953 17.3734C0.992839 16.9827 1.28255 16.6312 1.62109 16.3187C1.95964 16.0062 2.34375 15.7392 2.77344 15.5179C2.29167 15.1598 1.91732 14.7171 1.65039 14.1898C1.38346 13.6624 1.25 13.0993 1.25 12.5003C1.25 11.986 1.34766 11.501 1.54297 11.0452C1.73828 10.5895 2.00521 10.1924 2.34375 9.85382C2.68229 9.51528 3.07943 9.2451 3.53516 9.04327C3.99089 8.84145 4.47917 8.74379 5 8.75031C5.55339 8.75031 6.07747 8.86749 6.57227 9.10187C7.06706 9.33624 7.49674 9.66176 7.86133 10.0784C8.0306 9.91567 8.21289 9.76919 8.4082 9.63898C8.60352 9.50877 8.80859 9.38507 9.02344 9.26788C8.54167 8.90981 8.16732 8.4671 7.90039 7.93976C7.63346 7.41241 7.5 6.84926 7.5 6.25031C7.5 5.73598 7.59766 5.25096 7.79297 4.79523C7.98828 4.3395 8.25521 3.94236 8.59375 3.60382C8.93229 3.26528 9.32943 2.9951 9.78516 2.79327C10.2409 2.59145 10.7292 2.49379 11.25 2.50031C11.7643 2.50031 12.2493 2.59796 12.7051 2.79327C13.1608 2.98859 13.5579 3.25551 13.8965 3.59406C14.235 3.9326 14.5052 4.33299 14.707 4.79523C14.9089 5.25747 15.0065 5.74249 15 6.25031C15 6.84926 14.8665 7.41241 14.5996 7.93976C14.3327 8.4671 13.9583 8.90981 13.4766 9.26788C13.9323 9.50877 14.3424 9.80174 14.707 10.1468C15.0716 10.4918 15.3809 10.8922 15.6348 11.348C16.0514 11.348 16.4421 11.4261 16.8066 11.5823C17.1712 11.7386 17.4935 11.9567 17.7734 12.2366C18.0534 12.5166 18.2682 12.8356 18.418 13.1937C18.5677 13.5517 18.6458 13.9456 18.6523 14.3753C18.6523 14.8441 18.5514 15.2868 18.3496 15.7034C18.1478 16.1201 17.8581 16.4749 17.4805 16.7679ZM5 15.0003C5.34505 15.0003 5.66732 14.9352 5.9668 14.805C6.26628 14.6748 6.5332 14.4957 6.76758 14.2679C7.00195 14.04 7.18099 13.7763 7.30469 13.4769C7.42839 13.1774 7.49349 12.8519 7.5 12.5003C7.5 12.1553 7.4349 11.833 7.30469 11.5335C7.17448 11.234 6.99544 10.9671 6.76758 10.7327C6.53971 10.4984 6.27604 10.3193 5.97656 10.1956C5.67708 10.0719 5.35156 10.0068 5 10.0003C4.65495 10.0003 4.33268 10.0654 4.0332 10.1956C3.73372 10.3258 3.4668 10.5049 3.23242 10.7327C2.99805 10.9606 2.81901 11.2243 2.69531 11.5237C2.57161 11.8232 2.50651 12.1487 2.5 12.5003C2.5 12.8454 2.5651 13.1676 2.69531 13.4671C2.82552 13.7666 3.00456 14.0335 3.23242 14.2679C3.46029 14.5023 3.72396 14.6813 4.02344 14.805C4.32292 14.9287 4.64844 14.9938 5 15.0003ZM8.75 6.25031C8.75 6.59536 8.8151 6.91762 8.94531 7.2171C9.07552 7.51658 9.25456 7.78351 9.48242 8.01788C9.71029 8.25226 9.97396 8.43129 10.2734 8.55499C10.5729 8.67869 10.8984 8.74379 11.25 8.75031C11.5951 8.75031 11.9173 8.6852 12.2168 8.55499C12.5163 8.42478 12.7832 8.24575 13.0176 8.01788C13.252 7.79002 13.431 7.52635 13.5547 7.22687C13.6784 6.92739 13.7435 6.60187 13.75 6.25031C13.75 5.90525 13.6849 5.58299 13.5547 5.28351C13.4245 4.98403 13.2454 4.7171 13.0176 4.48273C12.7897 4.24835 12.526 4.06932 12.2266 3.94562C11.9271 3.82192 11.6016 3.75682 11.25 3.75031C10.9049 3.75031 10.5827 3.81541 10.2832 3.94562C9.98372 4.07583 9.7168 4.25486 9.48242 4.48273C9.24805 4.71059 9.06901 4.97426 8.94531 5.27374C8.82161 5.57322 8.75651 5.89874 8.75 6.25031ZM15.625 12.4026C15.3516 12.4026 15.0977 12.4547 14.8633 12.5589C14.6289 12.6631 14.4206 12.803 14.2383 12.9788C14.056 13.1546 13.9128 13.3629 13.8086 13.6038C13.7044 13.8447 13.6523 14.1019 13.6523 14.3753C13.6523 14.6487 13.7044 14.9026 13.8086 15.137C13.9128 15.3714 14.0527 15.5797 14.2285 15.762C14.4043 15.9443 14.6126 16.0875 14.8535 16.1917C15.0944 16.2959 15.3516 16.348 15.625 16.348C15.8984 16.348 16.1523 16.2959 16.3867 16.1917C16.6211 16.0875 16.8294 15.9476 17.0117 15.7718C17.194 15.596 17.3372 15.3877 17.4414 15.1468C17.5456 14.9059 17.5977 14.6487 17.5977 14.3753C17.5977 14.1019 17.5456 13.848 17.4414 13.6136C17.3372 13.3792 17.1973 13.1709 17.0215 12.9886C16.8457 12.8063 16.6374 12.6631 16.3965 12.5589C16.1556 12.4547 15.8984 12.4026 15.625 12.4026Z" fill="#99A1AF"/>
</svg>
