<svg width="16" height="17" viewBox="0 0 16 17" fill="none" xmlns="http://www.w3.org/2000/svg">
<path d="M1.33325 8V14.6667C1.33325 15.1087 1.50885 15.5326 1.82141 15.8452C2.13397 16.1577 2.55789 16.3333 2.99992 16.3333H12.9999C13.4419 16.3333 13.8659 16.1577 14.1784 15.8452C14.491 15.5326 14.6666 15.1087 14.6666 14.6667V8" stroke="#99A1AF" stroke-linecap="round" stroke-linejoin="round"/>
<path d="M8 3.41667C8 2.64312 7.69271 1.90125 7.14573 1.35427C6.59875 0.807291 5.85688 0.5 5.08333 0.5C4.5308 0.5 4.00089 0.719493 3.61019 1.11019C3.21949 1.50089 3 2.0308 3 2.58333C3 3.13587 3.21949 3.66577 3.61019 4.05647C4.00089 4.44717 4.5308 4.66667 5.08333 4.66667H8M8 3.41667V4.66667M8 3.41667C8 2.64312 8.30729 1.90125 8.85427 1.35427C9.40125 0.807291 10.1431 0.5 10.9167 0.5C11.4692 0.5 11.9991 0.719493 12.3898 1.11019C12.7805 1.50089 13 2.0308 13 2.58333C13 2.85692 12.9461 3.12783 12.8414 3.38059C12.7367 3.63335 12.5833 3.86302 12.3898 4.05647C12.1964 4.24993 11.9667 4.40339 11.7139 4.50808C11.4612 4.61278 11.1903 4.66667 10.9167 4.66667H8" stroke="#99A1AF" stroke-linejoin="round"/>
<path d="M8 7.99935V16.3327M0.5 4.66602H15.5V7.99935H0.5V4.66602Z" stroke="#99A1AF" stroke-linecap="round" stroke-linejoin="round"/>
</svg>
