<svg width="15" height="17" viewBox="0 0 15 17" fill="none" xmlns="http://www.w3.org/2000/svg">
<path fill-rule="evenodd" clip-rule="evenodd" d="M14.1667 0C14.3877 0 14.5996 0.0877975 14.7559 0.244078C14.9122 0.400358 15 0.61232 15 0.833333V12.5C15 12.721 14.9122 12.933 14.7559 13.0893C14.5996 13.2455 14.3877 13.3333 14.1667 13.3333C13.9457 13.3333 13.7337 13.2455 13.5774 13.0893C13.4211 12.933 13.3333 12.721 13.3333 12.5V0.833333C13.3333 0.61232 13.4211 0.400358 13.5774 0.244078C13.7337 0.0877975 13.9457 0 14.1667 0ZM10.8333 2.5C11.0543 2.5 11.2663 2.5878 11.4226 2.74408C11.5789 2.90036 11.6667 3.11232 11.6667 3.33333V12.5C11.6667 12.721 11.5789 12.933 11.4226 13.0893C11.2663 13.2455 11.0543 13.3333 10.8333 13.3333C10.6123 13.3333 10.4004 13.2455 10.2441 13.0893C10.0878 12.933 10 12.721 10 12.5V3.33333C10 3.11232 10.0878 2.90036 10.2441 2.74408C10.4004 2.5878 10.6123 2.5 10.8333 2.5ZM7.5 5C7.72101 5 7.93297 5.0878 8.08926 5.24408C8.24554 5.40036 8.33333 5.61232 8.33333 5.83333V12.5C8.33333 12.721 8.24554 12.933 8.08926 13.0893C7.93297 13.2455 7.72101 13.3333 7.5 13.3333C7.27899 13.3333 7.06702 13.2455 6.91074 13.0893C6.75446 12.933 6.66667 12.721 6.66667 12.5V5.83333C6.66667 5.61232 6.75446 5.40036 6.91074 5.24408C7.06702 5.0878 7.27899 5 7.5 5ZM4.16667 7.5C4.38768 7.5 4.59964 7.5878 4.75592 7.74408C4.9122 7.90036 5 8.11232 5 8.33333V12.5C5 12.721 4.9122 12.933 4.75592 13.0893C4.59964 13.2455 4.38768 13.3333 4.16667 13.3333C3.94565 13.3333 3.73369 13.2455 3.57741 13.0893C3.42113 12.933 3.33333 12.721 3.33333 12.5V8.33333C3.33333 8.11232 3.42113 7.90036 3.57741 7.74408C3.73369 7.5878 3.94565 7.5 4.16667 7.5ZM0.833333 10C1.05435 10 1.26631 10.0878 1.42259 10.2441C1.57887 10.4004 1.66667 10.6123 1.66667 10.8333V12.5C1.66667 12.721 1.57887 12.933 1.42259 13.0893C1.26631 13.2455 1.05435 13.3333 0.833333 13.3333C0.61232 13.3333 0.400358 13.2455 0.244078 13.0893C0.0877973 12.933 0 12.721 0 12.5V10.8333C0 10.6123 0.0877973 10.4004 0.244078 10.2441C0.400358 10.0878 0.61232 10 0.833333 10Z" fill="#99A1AF"/>
</svg>
