<svg width="20" height="20" viewBox="0 0 20 20" fill="none" xmlns="http://www.w3.org/2000/svg">
<path d="M1.00325 3.38065L2.53075 1.85232C2.53075 1.85232 8.13242 3.71982 11.3583 5.58732L14.9499 1.99565C15.4858 1.45982 16.1674 1.08815 16.9191 0.985651C17.4924 0.907318 18.1958 0.833984 18.8274 0.833984L19.1666 1.17315C19.1666 1.80398 19.0933 2.50815 19.0149 3.08148C18.9124 3.83315 18.5408 4.51482 18.0049 5.05148L14.4133 8.64315C16.2808 11.8682 18.1483 17.4698 18.1483 17.4698L16.6199 18.9973C16.6199 18.9973 13.5649 14.584 11.0183 12.0373C11.0183 12.0373 9.13159 13.2457 6.26575 16.1123C6.26575 16.1123 6.60492 17.4698 6.60492 18.8282L6.26575 19.1673C6.26575 19.1673 4.90742 17.4698 3.71909 16.2815C2.53075 15.0932 0.833252 13.7357 0.833252 13.7357L1.17242 13.3957C2.53075 13.3957 3.88909 13.7348 3.88909 13.7348C6.75492 10.869 7.96325 8.98232 7.96325 8.98232C5.41659 6.43565 1.00325 3.38065 1.00325 3.38065Z" stroke="black"/>
</svg>
