<svg width="20" height="20" viewBox="0 0 20 20" fill="none" xmlns="http://www.w3.org/2000/svg">
<path d="M3.33325 9.16602V15.8327C3.33325 16.2747 3.50885 16.6986 3.82141 17.0112C4.13397 17.3238 4.55789 17.4993 4.99992 17.4993H14.9999C15.4419 17.4993 15.8659 17.3238 16.1784 17.0112C16.491 16.6986 16.6666 16.2747 16.6666 15.8327V9.16602" stroke="black" stroke-linecap="round" stroke-linejoin="round"/>
<path d="M10 4.58268C10 3.80913 9.69271 3.06727 9.14573 2.52029C8.59875 1.97331 7.85688 1.66602 7.08333 1.66602C6.5308 1.66602 6.00089 1.88551 5.61019 2.27621C5.21949 2.66691 5 3.19681 5 3.74935C5 4.30188 5.21949 4.83179 5.61019 5.22249C6.00089 5.61319 6.5308 5.83268 7.08333 5.83268H10M10 4.58268V5.83268M10 4.58268C10 3.80913 10.3073 3.06727 10.8543 2.52029C11.4013 1.97331 12.1431 1.66602 12.9167 1.66602C13.4692 1.66602 13.9991 1.88551 14.3898 2.27621C14.7805 2.66691 15 3.19681 15 3.74935C15 4.02294 14.9461 4.29384 14.8414 4.54661C14.7367 4.79937 14.5833 5.02903 14.3898 5.22249C14.1964 5.41594 13.9667 5.5694 13.7139 5.6741C13.4612 5.7788 13.1903 5.83268 12.9167 5.83268H10" stroke="black" stroke-linejoin="round"/>
<path d="M10 9.16536V17.4987M2.5 5.83203H17.5V9.16536H2.5V5.83203Z" stroke="black" stroke-linecap="round" stroke-linejoin="round"/>
</svg>
