<svg width="20" height="20" viewBox="0 0 20 20" fill="none" xmlns="http://www.w3.org/2000/svg">
<path d="M17.0966 11.795L11.7949 17.0967C11.6588 17.2311 11.5057 17.3319 11.3357 17.3992C11.1657 17.4664 10.9963 17.5 10.8274 17.5C10.6585 17.5 10.4905 17.4664 10.3232 17.3992C10.156 17.3319 10.0043 17.2311 9.86823 17.0967L2.8999 10.1417C2.76823 10.0211 2.66879 9.87722 2.60157 9.71C2.53434 9.54333 2.50073 9.36778 2.50073 9.18333V3.86167C2.50073 3.48722 2.63184 3.16667 2.89407 2.9C3.15629 2.63333 3.47907 2.5 3.8624 2.5H9.18407C9.36407 2.5 9.53879 2.53639 9.70823 2.60917C9.87768 2.68194 10.0241 2.78028 10.1474 2.90417L17.0966 9.8575C17.2355 9.99361 17.3366 10.1467 17.3999 10.3167C17.4632 10.4867 17.4949 10.6581 17.4949 10.8308C17.4949 11.0036 17.4632 11.1731 17.3999 11.3392C17.3366 11.5053 17.2355 11.6572 17.0966 11.795ZM11.2007 16.5067L16.5016 11.205C16.6082 11.0983 16.6616 10.9728 16.6616 10.8283C16.6616 10.6839 16.6082 10.5583 16.5016 10.4517L9.38823 3.35H3.8624C3.7124 3.35 3.58684 3.39806 3.48573 3.49417C3.38407 3.59028 3.33323 3.71306 3.33323 3.8625V9.17917C3.33323 9.24361 3.34407 9.30778 3.36573 9.37167C3.38684 9.43611 3.42407 9.495 3.4774 9.54833L10.4474 16.5067C10.5541 16.6133 10.6793 16.6667 10.8232 16.6667C10.9677 16.6667 11.0935 16.6133 11.2007 16.5067ZM5.45823 6.29833C5.69212 6.29833 5.89045 6.21722 6.05323 6.055C6.21601 5.89278 6.29768 5.69611 6.29823 5.465C6.29823 5.22889 6.21712 5.02833 6.0549 4.86333C5.89268 4.69833 5.69601 4.61556 5.4649 4.615C5.22879 4.615 5.02823 4.69694 4.86323 4.86083C4.69823 5.02472 4.61573 5.22389 4.61573 5.45833C4.61573 5.69278 4.69768 5.89111 4.86157 6.05333C5.02545 6.21556 5.22434 6.29722 5.45823 6.29833ZM11.3207 13.5992L13.3657 11.4742C13.4863 11.3536 13.5782 11.2131 13.6416 11.0525C13.7055 10.8925 13.7374 10.7158 13.7374 10.5225C13.7374 10.1675 13.6113 9.85806 13.3591 9.59417C13.1068 9.33028 12.8024 9.19833 12.4457 9.19833C12.1741 9.19833 11.9063 9.26944 11.6424 9.41167C11.3785 9.55389 11.1088 9.80556 10.8332 10.1667C10.5443 9.79944 10.2716 9.54639 10.0149 9.4075C9.75823 9.26861 9.49351 9.19917 9.22073 9.19917C8.86406 9.19917 8.55962 9.33111 8.3074 9.595C8.05573 9.85889 7.9299 10.1681 7.9299 10.5225C7.9299 10.7158 7.96157 10.8928 8.0249 11.0533C8.08823 11.2133 8.18018 11.3536 8.30073 11.4742L10.3457 13.5992C10.4807 13.7342 10.6432 13.8017 10.8332 13.8017C11.0232 13.8017 11.1857 13.7342 11.3207 13.5992Z" fill="black"/>
</svg>
