<svg width="20" height="20" viewBox="0 0 20 20" fill="none" xmlns="http://www.w3.org/2000/svg">
<path fill-rule="evenodd" clip-rule="evenodd" d="M4.77769 2.7021C5.79185 1.69376 7.46185 1.87293 8.31102 3.00793L9.36269 4.41126C10.0544 5.3346 9.99269 6.6246 9.17185 7.44043L8.97352 7.63876C8.95103 7.72202 8.94874 7.80944 8.96685 7.89376C9.01935 8.23376 9.30352 8.95376 10.4935 10.1371C11.6835 11.3204 12.4085 11.6038 12.7535 11.6571C12.8405 11.6746 12.9302 11.672 13.016 11.6496L13.356 11.3113C14.086 10.5863 15.206 10.4504 16.1094 10.9413L17.701 11.8079C19.0652 12.5479 19.4094 14.4013 18.2927 15.5121L17.1085 16.6888C16.7352 17.0596 16.2335 17.3688 15.6219 17.4263C14.1135 17.5671 10.5994 17.3871 6.90519 13.7146C3.45769 10.2863 2.79602 7.29626 2.71185 5.82293C2.67019 5.07793 3.02185 4.44793 3.47019 4.00293L4.77769 2.7021ZM7.31102 3.7571C6.88852 3.19293 6.10185 3.14793 5.65852 3.58876L4.35019 4.88876C4.07519 5.1621 3.94352 5.46376 3.96019 5.7521C4.02685 6.92293 4.56019 9.62043 7.78685 12.8288C11.1719 16.1938 14.2977 16.2946 15.506 16.1813C15.7527 16.1588 15.9977 16.0304 16.2269 15.8029L17.4102 14.6254C17.8919 14.1471 17.786 13.2754 17.1044 12.9054L15.5127 12.0396C15.0727 11.8013 14.5577 11.8796 14.2377 12.1979L13.8585 12.5754L13.4169 12.1321C13.8585 12.5754 13.8577 12.5763 13.8569 12.5763L13.856 12.5779L13.8535 12.5804L13.8477 12.5854L13.8352 12.5971C13.8 12.6297 13.7621 12.6593 13.7219 12.6854C13.6552 12.7296 13.5669 12.7788 13.456 12.8196C13.231 12.9038 12.9327 12.9488 12.5644 12.8921C11.8419 12.7813 10.8844 12.2888 9.61185 11.0238C8.34019 9.75876 7.84352 8.8071 7.73185 8.08543C7.67435 7.7171 7.72019 7.41876 7.80519 7.19376C7.85197 7.06715 7.91894 6.94896 8.00352 6.84376L8.03019 6.8146L8.04185 6.8021L8.04685 6.7971L8.04935 6.7946L8.05102 6.79293L8.29102 6.5546C8.64769 6.19876 8.69769 5.6096 8.36185 5.16043L7.31102 3.7571Z" fill="black"/>
</svg>
