<svg width="20" height="20" viewBox="0 0 20 20" fill="none" xmlns="http://www.w3.org/2000/svg">
<path d="M10.0001 15.7799C10.4603 15.7799 10.8334 15.4069 10.8334 14.9466C10.8334 14.4864 10.4603 14.1133 10.0001 14.1133C9.53984 14.1133 9.16675 14.4864 9.16675 14.9466C9.16675 15.4069 9.53984 15.7799 10.0001 15.7799Z" fill="black"/>
<path d="M13.9391 18.2804H6.06075C5.53792 18.2492 5.04856 18.0128 4.69914 17.6227C4.34972 17.2325 4.1685 16.7202 4.19491 16.1971V3.80208C4.1685 3.279 4.34972 2.76664 4.69914 2.37648C5.04856 1.98633 5.53792 1.74994 6.06075 1.71875H13.9391C14.4619 1.74994 14.9513 1.98633 15.3007 2.37648C15.6501 2.76664 15.8313 3.279 15.8049 3.80208V16.1971C15.8313 16.7202 15.6501 17.2325 15.3007 17.6227C14.9513 18.0128 14.4619 18.2492 13.9391 18.2804ZM6.06075 2.55208C5.75932 2.58392 5.48238 2.73264 5.28935 2.96633C5.09632 3.20002 5.00258 3.50007 5.02825 3.80208V16.1971C5.00258 16.4991 5.09632 16.7991 5.28935 17.0328C5.48238 17.2665 5.75932 17.4152 6.06075 17.4471H13.9391C14.2405 17.4152 14.5174 17.2665 14.7105 17.0328C14.9035 16.7991 14.9972 16.4991 14.9716 16.1971V3.80208C14.9972 3.50007 14.9035 3.20002 14.7105 2.96633C14.5174 2.73264 14.2405 2.58392 13.9391 2.55208H6.06075Z" fill="black"/>
</svg>
