<svg width="16" height="17" viewBox="0 0 16 17" fill="none" xmlns="http://www.w3.org/2000/svg">
<path d="M1.64111 14.3665C1.64522 14.6046 1.7145 14.837 1.84144 15.0385C1.96838 15.24 2.14811 15.4028 2.36111 15.5093C2.57381 15.6295 2.81396 15.6927 3.05826 15.6927C3.30255 15.6927 3.5427 15.6295 3.7554 15.5093L13.6411 9.39504C13.8562 9.29142 14.0377 9.12919 14.1647 8.92702C14.2917 8.72485 14.3591 8.49094 14.3591 8.25219C14.3591 8.01343 14.2917 7.77952 14.1647 7.57735C14.0377 7.37518 13.8562 7.21295 13.6411 7.10933L3.7554 1.04076C3.5427 0.920576 3.30255 0.857422 3.05826 0.857422C2.81396 0.857422 2.57381 0.920576 2.36111 1.04076C2.14811 1.14726 1.96838 1.3101 1.84144 1.51159C1.7145 1.71308 1.64522 1.94551 1.64111 2.18361V14.3665Z" stroke="black" stroke-width="1.71429" stroke-linecap="round" stroke-linejoin="round"/>
</svg>
