<svg width="20" height="20" viewBox="0 0 20 20" fill="none" xmlns="http://www.w3.org/2000/svg">
<path d="M6.19008 2.77C6.32108 2.314 6.73808 2 7.21208 2H12.4621C13.1871 2 13.6991 2.71 13.4691 3.398L13.4671 3.406L12.2051 7H14.7691C15.7161 7 16.1761 8.144 15.5361 8.811L15.5321 8.815L6.85608 17.673C6.10108 18.455 4.79608 17.733 5.06008 16.677L6.23008 11.998H4.96308C4.7986 11.9981 4.63634 11.9601 4.48908 11.8868C4.34182 11.8135 4.21359 11.7071 4.1145 11.5758C4.01541 11.4445 3.94817 11.292 3.91808 11.1303C3.88798 10.9686 3.89585 10.8021 3.94108 10.644L6.19008 2.77ZM7.21308 3C7.19945 2.99957 7.18609 3.00379 7.17518 3.01197C7.16428 3.02015 7.15648 3.0318 7.15308 3.045L4.90308 10.919C4.89308 10.959 4.92308 10.999 4.96308 10.999H6.87008C6.94592 10.9991 7.02075 11.0164 7.08892 11.0496C7.15708 11.0829 7.21678 11.1312 7.26351 11.1909C7.31024 11.2507 7.34277 11.3202 7.35863 11.3944C7.3745 11.4686 7.37328 11.5454 7.35508 11.619L6.03008 16.919C6.02757 16.9288 6.02656 16.9389 6.02708 16.949C6.02708 16.953 6.02808 16.9567 6.03008 16.96C6.03341 16.9687 6.04341 16.9787 6.06008 16.99C6.07808 17 6.09408 17 6.10208 17L6.11208 16.996C6.12094 16.9912 6.12903 16.9852 6.13608 16.978L6.14008 16.974L14.8151 8.118C14.8239 8.10934 14.8298 8.09816 14.8321 8.086C14.8331 8.07099 14.8307 8.05595 14.8251 8.042C14.8193 8.02902 14.8107 8.01743 14.8001 8.008C14.7961 8.00333 14.7861 8.00067 14.7701 8H11.5001C11.4201 8.00006 11.3413 7.98094 11.2703 7.94424C11.1992 7.90755 11.138 7.85435 11.0918 7.78911C11.0455 7.72387 11.0156 7.6485 11.0045 7.56931C10.9935 7.49012 11.0015 7.40943 11.0281 7.334L12.5211 3.08C12.5239 3.07068 12.5245 3.06083 12.5228 3.05124C12.5211 3.04165 12.5172 3.03259 12.5113 3.0248C12.5055 3.01701 12.4979 3.0107 12.4892 3.00639C12.4804 3.00208 12.4708 2.99989 12.4611 3H7.21308Z" fill="black"/>
</svg>
