<svg width="20" height="20" viewBox="0 0 20 20" fill="none" xmlns="http://www.w3.org/2000/svg">
<path fill-rule="evenodd" clip-rule="evenodd" d="M16.6667 3.33398C16.8877 3.33398 17.0996 3.42178 17.2559 3.57806C17.4122 3.73434 17.5 3.9463 17.5 4.16732V15.834C17.5 16.055 17.4122 16.267 17.2559 16.4232C17.0996 16.5795 16.8877 16.6673 16.6667 16.6673C16.4457 16.6673 16.2337 16.5795 16.0774 16.4232C15.9211 16.267 15.8333 16.055 15.8333 15.834V4.16732C15.8333 3.9463 15.9211 3.73434 16.0774 3.57806C16.2337 3.42178 16.4457 3.33398 16.6667 3.33398ZM13.3333 5.83398C13.5543 5.83398 13.7663 5.92178 13.9226 6.07806C14.0789 6.23434 14.1667 6.4463 14.1667 6.66732V15.834C14.1667 16.055 14.0789 16.267 13.9226 16.4232C13.7663 16.5795 13.5543 16.6673 13.3333 16.6673C13.1123 16.6673 12.9004 16.5795 12.7441 16.4232C12.5878 16.267 12.5 16.055 12.5 15.834V6.66732C12.5 6.4463 12.5878 6.23434 12.7441 6.07806C12.9004 5.92178 13.1123 5.83398 13.3333 5.83398ZM10 8.33398C10.221 8.33398 10.433 8.42178 10.5893 8.57806C10.7455 8.73434 10.8333 8.9463 10.8333 9.16732V15.834C10.8333 16.055 10.7455 16.267 10.5893 16.4232C10.433 16.5795 10.221 16.6673 10 16.6673C9.77899 16.6673 9.56702 16.5795 9.41074 16.4232C9.25446 16.267 9.16667 16.055 9.16667 15.834V9.16732C9.16667 8.9463 9.25446 8.73434 9.41074 8.57806C9.56702 8.42178 9.77899 8.33398 10 8.33398ZM6.66667 10.834C6.88768 10.834 7.09964 10.9218 7.25592 11.0781C7.4122 11.2343 7.5 11.4463 7.5 11.6673V15.834C7.5 16.055 7.4122 16.267 7.25592 16.4232C7.09964 16.5795 6.88768 16.6673 6.66667 16.6673C6.44565 16.6673 6.23369 16.5795 6.07741 16.4232C5.92113 16.267 5.83333 16.055 5.83333 15.834V11.6673C5.83333 11.4463 5.92113 11.2343 6.07741 11.0781C6.23369 10.9218 6.44565 10.834 6.66667 10.834ZM3.33333 13.334C3.55435 13.334 3.76631 13.4218 3.92259 13.5781C4.07887 13.7343 4.16667 13.9463 4.16667 14.1673V15.834C4.16667 16.055 4.07887 16.267 3.92259 16.4232C3.76631 16.5795 3.55435 16.6673 3.33333 16.6673C3.11232 16.6673 2.90036 16.5795 2.74408 16.4232C2.5878 16.267 2.5 16.055 2.5 15.834V14.1673C2.5 13.9463 2.5878 13.7343 2.74408 13.5781C2.90036 13.4218 3.11232 13.334 3.33333 13.334Z" fill="black"/>
</svg>
