<svg width="20" height="20" viewBox="0 0 20 20" fill="none" xmlns="http://www.w3.org/2000/svg">
<path d="M1.66675 14.9993C1.66675 13.716 1.66675 13.0743 1.95591 12.6027C2.11758 12.3385 2.33925 12.1168 2.60341 11.9552C3.07425 11.666 3.71675 11.666 5.00008 11.666C6.28341 11.666 6.92508 11.666 7.39675 11.9552C7.66091 12.1168 7.88258 12.3385 8.04425 12.6027C8.33341 13.0735 8.33341 13.716 8.33341 14.9993C8.33341 16.2827 8.33341 16.9243 8.04425 17.3968C7.88258 17.6602 7.66091 17.8818 7.39675 18.0435C6.92591 18.3327 6.28341 18.3327 5.00008 18.3327C3.71675 18.3327 3.07508 18.3327 2.60341 18.0435C2.33954 17.8821 2.11765 17.6605 1.95591 17.3968C1.66675 16.9243 1.66675 16.2827 1.66675 14.9993ZM11.6667 14.9993C11.6667 13.716 11.6667 13.0743 11.9559 12.6027C12.1176 12.3385 12.3392 12.1168 12.6034 11.9552C13.0742 11.666 13.7167 11.666 15.0001 11.666C16.2834 11.666 16.9251 11.666 17.3976 11.9552C17.6609 12.1168 17.8826 12.3385 18.0442 12.6027C18.3334 13.0735 18.3334 13.716 18.3334 14.9993C18.3334 16.2827 18.3334 16.9243 18.0442 17.3968C17.8825 17.6602 17.661 17.8818 17.3976 18.0435C16.9251 18.3327 16.2834 18.3327 15.0001 18.3327C13.7167 18.3327 13.0751 18.3327 12.6034 18.0435C12.3395 17.8821 12.1176 17.6605 11.9559 17.3968C11.6667 16.9243 11.6667 16.2827 11.6667 14.9993ZM1.66675 4.99935C1.66675 3.71602 1.66675 3.07435 1.95591 2.60268C2.11758 2.33852 2.33925 2.11685 2.60341 1.95518C3.07425 1.66602 3.71675 1.66602 5.00008 1.66602C6.28341 1.66602 6.92508 1.66602 7.39675 1.95518C7.66091 2.11685 7.88258 2.33852 8.04425 2.60268C8.33341 3.07352 8.33341 3.71602 8.33341 4.99935C8.33341 6.28268 8.33341 6.92435 8.04425 7.39602C7.88258 7.66018 7.66091 7.88185 7.39675 8.04352C6.92591 8.33268 6.28341 8.33268 5.00008 8.33268C3.71675 8.33268 3.07508 8.33268 2.60341 8.04352C2.33944 7.88189 2.11754 7.65999 1.95591 7.39602C1.66675 6.92518 1.66675 6.28268 1.66675 4.99935ZM11.6667 4.99935C11.6667 3.71602 11.6667 3.07435 11.9559 2.60268C12.1176 2.33852 12.3392 2.11685 12.6034 1.95518C13.0742 1.66602 13.7167 1.66602 15.0001 1.66602C16.2834 1.66602 16.9251 1.66602 17.3976 1.95518C17.6609 2.11685 17.8826 2.33852 18.0442 2.60268C18.3334 3.07352 18.3334 3.71602 18.3334 4.99935C18.3334 6.28268 18.3334 6.92435 18.0442 7.39602C17.8826 7.66018 17.6609 7.88185 17.3976 8.04352C16.9251 8.33268 16.2834 8.33268 15.0001 8.33268C13.7167 8.33268 13.0751 8.33268 12.6034 8.04352C12.3394 7.88189 12.1175 7.65999 11.9559 7.39602C11.6667 6.92518 11.6667 6.28268 11.6667 4.99935Z" stroke="black" stroke-width="1.5"/>
</svg>
