<svg width="20" height="20" viewBox="0 0 20 20" fill="none" xmlns="http://www.w3.org/2000/svg">
<path d="M11.5266 13.806C11.6987 13.8851 11.8926 13.9031 12.0764 13.8572C12.2601 13.8113 12.4227 13.7042 12.5375 13.5535L12.8333 13.166C12.9885 12.959 13.1898 12.791 13.4213 12.6753C13.6527 12.5596 13.9079 12.4993 14.1666 12.4993H16.6666C17.1087 12.4993 17.5326 12.6749 17.8451 12.9875C18.1577 13.3001 18.3333 13.724 18.3333 14.166V16.666C18.3333 17.108 18.1577 17.532 17.8451 17.8445C17.5326 18.1571 17.1087 18.3327 16.6666 18.3327C12.6884 18.3327 8.87307 16.7523 6.06002 13.9393C3.24698 11.1262 1.66663 7.31093 1.66663 3.33268C1.66663 2.89065 1.84222 2.46673 2.15478 2.15417C2.46734 1.84161 2.89127 1.66602 3.33329 1.66602H5.83329C6.27532 1.66602 6.69924 1.84161 7.0118 2.15417C7.32436 2.46673 7.49996 2.89065 7.49996 3.33268V5.83268C7.49996 6.09142 7.43972 6.34661 7.324 6.57804C7.20829 6.80946 7.04029 7.01077 6.83329 7.16602L6.44329 7.45852C6.29031 7.57533 6.18248 7.7415 6.13812 7.92881C6.09376 8.11611 6.11561 8.313 6.19996 8.48602C7.33886 10.7992 9.21198 12.67 11.5266 13.806Z" stroke="#FFDB43" stroke-width="1.66667" stroke-linecap="round" stroke-linejoin="round"/>
</svg>
