<svg width="36" height="36" viewBox="0 0 36 36" fill="none" xmlns="http://www.w3.org/2000/svg">
<path d="M14.625 15C13.531 15 12.4818 15.4346 11.7082 16.2082C10.9346 16.9818 10.5 18.031 10.5 19.125V24.375C10.5 25.469 10.9346 26.5182 11.7082 27.2918C12.4818 28.0654 13.531 28.5 14.625 28.5H21.375C22.469 28.5 23.5182 28.0654 24.2918 27.2918C25.0654 26.5182 25.5 25.469 25.5 24.375V19.125C25.5 18.031 25.0654 16.9818 24.2918 16.2082C23.5182 15.4346 22.469 15 21.375 15H14.625ZM12.75 19.125C12.75 18.09 13.59 17.25 14.625 17.25H18V21H12.75V19.125ZM12.75 23.25H18V26.25H14.625C13.59 26.25 12.75 25.41 12.75 24.375V23.25ZM20.25 26.25V17.25H21.375C22.41 17.25 23.25 18.09 23.25 19.125V24.375C23.25 25.41 22.41 26.25 21.375 26.25H20.25ZM10.875 3C9.58207 3 8.34209 3.51361 7.42785 4.42785C6.51361 5.34209 6 6.58207 6 7.875V28.125C6 28.7652 6.1261 29.3991 6.37109 29.9906C6.61608 30.582 6.97517 31.1195 7.42785 31.5721C7.88054 32.0248 8.41796 32.3839 9.00942 32.6289C9.60088 32.8739 10.2348 33 10.875 33H25.125C25.7652 33 26.3991 32.8739 26.9906 32.6289C27.582 32.3839 28.1195 32.0248 28.5721 31.5721C29.0248 31.1195 29.3839 30.582 29.6289 29.9906C29.8739 29.3991 30 28.7652 30 28.125V13.929C30.0002 13.2886 29.8741 12.6544 29.6291 12.0627C29.3841 11.471 29.0249 10.9333 28.572 10.4805L22.5195 4.428C22.0667 3.97513 21.529 3.61592 20.9373 3.3709C20.3456 3.12587 19.7114 2.99984 19.071 3H10.875ZM8.25 7.875C8.25 6.426 9.426 5.25 10.875 5.25H19.071C19.7685 5.25 20.436 5.526 20.928 6.0195L26.9805 12.072C27.474 12.564 27.75 13.2315 27.75 13.929V28.125C27.75 28.8212 27.4734 29.4889 26.9812 29.9812C26.4889 30.4734 25.8212 30.75 25.125 30.75H10.875C10.1788 30.75 9.51113 30.4734 9.01884 29.9812C8.52656 29.4889 8.25 28.8212 8.25 28.125V7.875Z" fill="#99A1AF"/>
</svg>
