<svg width="30" height="24" viewBox="0 0 30 24" fill="none" xmlns="http://www.w3.org/2000/svg">
<path d="M27 0C27.8297 0 28.5 0.670312 28.5 1.5V22.5C28.5 23.3297 27.8297 24 27 24C26.1703 24 25.5 23.3297 25.5 22.5V1.5C25.5 0.670312 26.1703 0 27 0ZM21 4.5C21.8297 4.5 22.5 5.17031 22.5 6V22.5C22.5 23.3297 21.8297 24 21 24C20.1703 24 19.5 23.3297 19.5 22.5V6C19.5 5.17031 20.1703 4.5 21 4.5ZM16.5 10.5V22.5C16.5 23.3297 15.8297 24 15 24C14.1703 24 13.5 23.3297 13.5 22.5V10.5C13.5 9.67031 14.1703 9 15 9C15.8297 9 16.5 9.67031 16.5 10.5ZM9 13.5C9.82969 13.5 10.5 14.1703 10.5 15V22.5C10.5 23.3297 9.82969 24 9 24C8.17031 24 7.5 23.3297 7.5 22.5V15C7.5 14.1703 8.17031 13.5 9 13.5ZM4.5 19.5V22.5C4.5 23.3297 3.82969 24 3 24C2.17031 24 1.5 23.3297 1.5 22.5V19.5C1.5 18.6703 2.17031 18 3 18C3.82969 18 4.5 18.6703 4.5 19.5Z" fill="#475569"/>
</svg>
