<svg width="24" height="24" viewBox="0 0 24 24" fill="none" xmlns="http://www.w3.org/2000/svg">
<path fill-rule="evenodd" clip-rule="evenodd" d="M1.7998 12.0008C1.7998 13.3403 2.06364 14.6666 2.57623 15.9042C3.08883 17.1417 3.84016 18.2661 4.78732 19.2133C5.73447 20.1604 6.85891 20.9118 8.09643 21.4244C9.33396 21.937 10.6603 22.2008 11.9998 22.2008C13.3393 22.2008 14.6657 21.937 15.9032 21.4244C17.1407 20.9118 18.2651 20.1604 19.2123 19.2133C20.1595 18.2661 20.9108 17.1417 21.4234 15.9042C21.936 14.6666 22.1998 13.3403 22.1998 12.0008C22.1998 9.29557 21.1252 6.70116 19.2123 4.78829C17.2994 2.87542 14.705 1.80078 11.9998 1.80078C9.2946 1.80078 6.70019 2.87542 4.78732 4.78829C2.87444 6.70116 1.7998 9.29557 1.7998 12.0008ZM20.9998 12.0008C20.9998 14.3877 20.0516 16.6769 18.3638 18.3647C16.6759 20.0526 14.3868 21.0008 11.9998 21.0008C9.61286 21.0008 7.32367 20.0526 5.63584 18.3647C3.94802 16.6769 2.9998 14.3877 2.9998 12.0008C2.9998 9.61383 3.94802 7.32465 5.63584 5.63682C7.32367 3.94899 9.61286 3.00078 11.9998 3.00078C14.3868 3.00078 16.6759 3.94899 18.3638 5.63682C20.0516 7.32465 20.9998 9.61383 20.9998 12.0008Z" fill="#99A1AF"/>
<path fill-rule="evenodd" clip-rule="evenodd" d="M7.7998 12.0004C7.7998 17.2756 9.5302 21.6004 11.9998 21.6004C14.4694 21.6004 16.1998 17.2756 16.1998 12.0004C16.1998 6.72519 14.4694 2.40039 11.9998 2.40039C9.5302 2.40039 7.7998 6.72519 7.7998 12.0004ZM14.9998 12.0004C14.9998 16.6672 13.5058 20.4004 11.9998 20.4004C10.4938 20.4004 8.9998 16.6672 8.9998 12.0004C8.9998 7.33359 10.4938 3.60039 11.9998 3.60039C13.5058 3.60039 14.9998 7.33359 14.9998 12.0004Z" fill="#99A1AF"/>
<path d="M4.4819 6.37477L5.2859 5.48438C5.4139 5.59958 5.5511 5.71197 5.6975 5.82157C7.2791 7.00717 9.7751 7.72957 12.4955 7.72957C14.8151 7.72957 16.9799 7.20517 18.5615 6.30157C18.9259 6.09533 19.2702 5.85549 19.5899 5.58517L20.3699 6.49717C20.0115 6.80357 19.6075 7.08517 19.1579 7.34197C17.3855 8.35597 15.0155 8.92957 12.4955 8.92957C9.5315 8.92957 6.7811 8.13397 4.9775 6.78157C4.80632 6.65301 4.64095 6.51808 4.4819 6.37477ZM4.4819 17.6404L5.2859 18.5284C5.4139 18.4124 5.5511 18.3004 5.6975 18.1924C7.2791 17.0068 9.7751 16.2844 12.4955 16.2844C14.8151 16.2844 16.9799 16.8076 18.5615 17.7124C18.9471 17.934 19.2899 18.1724 19.5899 18.4276L20.3699 17.5156C19.9931 17.1968 19.5873 16.914 19.1579 16.6708C17.3855 15.658 15.0155 15.0844 12.4955 15.0844C9.5315 15.0844 6.7811 15.88 4.9775 17.2312C4.8015 17.3632 4.6363 17.5004 4.4819 17.6404ZM2.3999 12.6004V11.4004H21.5999V12.6004H2.3999Z" fill="#99A1AF"/>
</svg>
