<svg width="24" height="24" viewBox="0 0 24 24" fill="none" xmlns="http://www.w3.org/2000/svg">
<path d="M2.46191 21.1366C2.46807 21.4938 2.572 21.8424 2.76241 22.1447C2.95281 22.4469 3.22242 22.6912 3.54191 22.8509C3.86096 23.0312 4.22118 23.1259 4.58763 23.1259C4.95408 23.1259 5.3143 23.0312 5.63334 22.8509L20.4619 13.6795C20.7846 13.524 21.0568 13.2807 21.2473 12.9774C21.4378 12.6742 21.5389 12.3233 21.5389 11.9652C21.5389 11.6071 21.4378 11.2562 21.2473 10.9529C21.0568 10.6497 20.7846 10.4063 20.4619 10.2509L5.63334 1.14805C5.3143 0.967778 4.95408 0.873047 4.58763 0.873047C4.22118 0.873047 3.86096 0.967778 3.54191 1.14805C3.22242 1.3078 2.95281 1.55207 2.76241 1.8543C2.572 2.15653 2.46807 2.50517 2.46191 2.86233V21.1366Z" stroke="#99A1AF" stroke-width="1.71429" stroke-linecap="round" stroke-linejoin="round"/>
</svg>
