<svg width="24" height="24" viewBox="0 0 24 24" fill="none" xmlns="http://www.w3.org/2000/svg">
<path d="M21.915 10.371L10.467 22.491C10.0846 22.8958 9.57429 23.1563 9.02215 23.2287C8.47001 23.3012 7.90978 23.181 7.43588 22.8886C6.96198 22.5961 6.60339 22.1493 6.42053 21.6233C6.23767 21.0973 6.24173 20.5243 6.43202 20.001L8.25002 15H4.01552C3.60442 15 3.19957 14.8992 2.83642 14.7066C2.47327 14.5139 2.16288 14.2351 1.93242 13.8947C1.70196 13.5542 1.55845 13.1625 1.51445 12.7537C1.47045 12.345 1.5273 11.9317 1.68002 11.55L5.16452 2.8395C5.41189 2.22328 5.83783 1.69508 6.38763 1.32275C6.93744 0.950416 7.58601 0.750961 8.25002 0.75H14.25C15.702 0.75 16.7055 2.2005 16.197 3.5595L15 6.75H20.3535C20.7729 6.74998 21.1831 6.87283 21.5335 7.10337C21.8839 7.33391 22.159 7.66203 22.325 8.04721C22.4909 8.43239 22.5404 8.85774 22.4672 9.27072C22.3941 9.6837 22.2031 10.0662 21.915 10.371Z" fill="#FFDB43"/>
</svg>
