<svg width="36" height="36" viewBox="0 0 36 36" fill="none" xmlns="http://www.w3.org/2000/svg">
<path d="M28.5 6C29.2956 6 30.0587 6.31607 30.6213 6.87868C31.1839 7.44129 31.5 8.20435 31.5 9V12.402C31.956 12.6653 32.3348 13.044 32.5981 13.5C32.8614 13.9561 33 14.4734 33 15V21C33 21.5266 32.8614 22.0439 32.5981 22.5C32.3348 22.956 31.956 23.3347 31.5 23.598V27C31.5 27.7956 31.1839 28.5587 30.6213 29.1213C30.0587 29.6839 29.2956 30 28.5 30H7.5C6.70435 30 5.94129 29.6839 5.37868 29.1213C4.81607 28.5587 4.5 27.7956 4.5 27V9C4.5 8.20435 4.81607 7.44129 5.37868 6.87868C5.94129 6.31607 6.70435 6 7.5 6H28.5ZM28.5 9H7.5V27H28.5V24H22.5C20.9347 24 19.4313 23.3883 18.3107 22.2954C17.1901 21.2025 16.5409 19.7149 16.5018 18.15C16.4626 16.5852 17.0366 15.067 18.1012 13.9194C19.1657 12.7719 20.6366 12.0857 22.2 12.0075L22.5 12H28.5V9ZM30 15H22.5C21.7044 15 20.9413 15.3161 20.3787 15.8787C19.8161 16.4413 19.5 17.2044 19.5 18C19.5 18.7956 19.8161 19.5587 20.3787 20.1213C20.9413 20.6839 21.7044 21 22.5 21H30V15ZM24 16.5C24.3978 16.5 24.7794 16.658 25.0607 16.9393C25.342 17.2206 25.5 17.6022 25.5 18C25.5 18.3978 25.342 18.7794 25.0607 19.0607C24.7794 19.342 24.3978 19.5 24 19.5C23.6022 19.5 23.2206 19.342 22.9393 19.0607C22.658 18.7794 22.5 18.3978 22.5 18C22.5 17.6022 22.658 17.2206 22.9393 16.9393C23.2206 16.658 23.6022 16.5 24 16.5Z" fill="#99A1AF"/>
</svg>
