<svg width="48" height="48" viewBox="0 0 48 48" fill="none" xmlns="http://www.w3.org/2000/svg">
<circle cx="24" cy="24" r="24" fill="#FEA100" fill-opacity="0.2"/>
<path d="M35.5627 24C35.5646 25.5181 35.267 27.0216 34.6867 28.4245C34.1065 29.8273 33.2551 31.1018 32.1814 32.175C31.1072 33.2495 29.8317 34.1017 28.4279 34.683C27.0241 35.2642 25.5196 35.5631 24.0002 35.5625C22.3649 35.5661 20.7477 35.2209 19.2564 34.55L14.4227 35.265C14.1827 35.3042 13.9367 35.2842 13.7062 35.2067C13.4757 35.1293 13.2676 34.9967 13.0999 34.8206C12.9323 34.6444 12.8102 34.43 12.7442 34.196C12.6783 33.9619 12.6704 33.7153 12.7214 33.4775L13.3927 28.5738C12.7542 27.134 12.4287 25.575 12.4377 24C12.4357 22.4819 12.7334 20.9784 13.3136 19.5755C13.8939 18.1727 14.7452 16.8982 15.8189 15.825C16.8932 14.7505 18.1686 13.8983 19.5724 13.317C20.9762 12.7358 22.4808 12.4369 24.0002 12.4375C27.0685 12.4377 30.0111 13.6561 32.1814 15.825C33.2546 16.8986 34.1056 18.1732 34.6858 19.5759C35.266 20.9787 35.5639 22.482 35.5627 24Z" stroke="#FEA100" stroke-width="1.5" stroke-linecap="round" stroke-linejoin="round"/>
</svg>
