<svg width="1276" height="378" viewBox="0 0 1276 378" fill="none" xmlns="http://www.w3.org/2000/svg">
<g opacity="0.16">
<path d="M449.264 0L0.321438 376.707" stroke="#B3B3B3"/>
<path d="M491.12 0L187.276 376.707" stroke="#B3B3B3"/>
<path d="M532.976 0L334.548 376.707" stroke="#B3B3B3"/>
<path d="M574.832 0L462.054 376.707" stroke="#B3B3B3"/>
<path d="M616.689 0L580.047 376.707" stroke="#B3B3B3"/>
<path d="M658.546 0L695.187 376.707" stroke="#B3B3B3"/>
<path d="M700.403 0L813.181 376.707" stroke="#B3B3B3"/>
<path d="M742.258 0L940.687 376.707" stroke="#B3B3B3"/>
<path d="M784.114 0L1087.96 376.707" stroke="#B3B3B3"/>
<path d="M825.971 0L1274.91 376.707" stroke="#B3B3B3"/>
<path d="M449.264 0H825.971" stroke="#B3B3B3"/>
<path d="M449.264 0H825.971" stroke="#B3B3B3"/>
<path d="M449.264 0H825.971" stroke="#B3B3B3"/>
<path d="M449.264 0H825.972" stroke="#B3B3B3"/>
<path d="M449.26 0.00195312H825.974" stroke="#B3B3B3"/>
<path d="M449.252 0.0078125H825.983" stroke="#B3B3B3"/>
<path d="M449.229 0.0292969H826.006" stroke="#B3B3B3"/>
<path d="M449.176 0.0703125H826.06" stroke="#B3B3B3"/>
<path d="M449.065 0.167969H826.168" stroke="#B3B3B3"/>
<path d="M448.862 0.335938H826.371" stroke="#B3B3B3"/>
<path d="M448.508 0.632812H826.725" stroke="#B3B3B3"/>
<path d="M447.926 1.11914H827.308" stroke="#B3B3B3"/>
<path d="M447.01 1.89258H828.224" stroke="#B3B3B3"/>
<path d="M445.62 3.05859H829.614" stroke="#B3B3B3"/>
<path d="M443.581 4.76953H831.654" stroke="#B3B3B3"/>
<path d="M440.667 7.21289H834.568" stroke="#B3B3B3"/>
<path d="M436.601 10.623H838.633" stroke="#B3B3B3"/>
<path d="M431.046 15.2871H844.188" stroke="#B3B3B3"/>
<path d="M423.593 21.5371H851.641" stroke="#B3B3B3"/>
<path d="M413.756 29.793H861.479" stroke="#B3B3B3"/>
<path d="M400.959 40.5312H874.274" stroke="#B3B3B3"/>
<path d="M384.532 54.3164H890.703" stroke="#B3B3B3"/>
<path d="M363.69 71.8027H911.544" stroke="#B3B3B3"/>
<path d="M337.534 93.7539H937.701" stroke="#B3B3B3"/>
<path d="M305.028 121.027H970.205" stroke="#B3B3B3"/>
<path d="M264.999 154.617H1010.24" stroke="#B3B3B3"/>
<path d="M216.11 195.639H1059.12" stroke="#B3B3B3"/>
<path d="M156.858 245.354H1118.38" stroke="#B3B3B3"/>
<path d="M85.5576 305.184H1189.68" stroke="#B3B3B3"/>
<path d="M0.321289 376.707H1274.91" stroke="#B3B3B3"/>
</g>
</svg>
